<?xml version="1.0" encoding="UTF-8"?>
<svg width="128pt" height="128pt" version="1.1" viewBox="0 0 128 128" xmlns="http://www.w3.org/2000/svg">
 <path d="m118.03 78.477c-6.5156-4.3906-13.48-8.0898-20.043-12.391 0.023438-0.050782 0.066407-0.089844 0 0-6.8594-4.5039-13.719-9.0117-20.609-13.48-1.1406-0.73047-2.1094-2.8945-4.7734 1-2.8633 4.2109-0.33594 4.1602 0.70312 4.9141 1.3711 1 2.7656 1.9609 4.1602 2.9062-1.1406 1.3203-2.1484 2.9219-3.0586 4.2266-5.4883 7.8438-10.805 15.797-16.113 23.77l-1.9961 2.9805-1 1.5-0.5 0.75391-0.61328 1.0234c-1.6406 2.7266-2.5195 5.8984-2.625 9.0586-0.14062 3.1758 0.60156 6.3359 1.9688 9.1641 1.3789 2.8398 3.5352 5.3008 6.0664 7.1289 2.6602 1.9062 5.875 3.1094 9.1406 3.4453 3.2734 0.29688 6.6289-0.19141 9.6406-1.5586 3.0195-1.3203 5.6602-3.4961 7.6055-6.1445l4.3516-6.2461 17.059-24.691c0.46094-0.66406 1.0352-1.3711 1.6016-2.1016 1.125 1.0234 2.2266 2.0742 3.3008 3.1602 1.3438 1.3711 3.3398 3.2656 6.7969-2.125 2.8398-4.4141 0.37109-5.3242-1.0586-6.3008zm-33.191 26.996-4.1602 6.0391-0.51172 0.73828-0.44922 0.58984c-0.28125 0.41016-0.66406 0.73047-0.98438 1.1016-0.73047 0.66406-1.4844 1.3047-2.3555 1.7656-3.4219 2.0117-7.8867 2.0117-11.34 0.089844-1.7148-0.98438-3.1992-2.3789-4.2266-4.0469-0.98438-1.6914-1.625-3.6211-1.6484-5.5781-0.074218-1.9609 0.37109-3.9062 1.2969-5.6055 0.20312-0.43359 0.5-0.82812 0.75391-1.2305 0.26953-0.41016 0.69141-0.96094 1.0352-1.4336l2.1758-2.9531c2.0508-2.7656 4.1367-5.5039 6.2344-8.2305 5.875 4.6094 12.727 7.8086 17.469 14.031-1.0898 1.5742-2.1914 3.1367-3.2734 4.7109zm16.859-24.027c-2.75 3.8242-5.4805 7.6641-8.1797 11.535-2.9297-1.9062-6.0938-3.4961-8.9766-5.4883-0.066407 0.089843-0.023438 0.050781 0 0-3.1367-2.1758-6.2695-4.3516-9.4219-6.5 2.4297-3.0703 4.8906-6.1289 7.4102-9.1484 1.1797-1.4102 2.5352-3.0859 3.4219-4.8164 5.8906 3.8008 11.789 7.5898 17.344 11.914-0.56641 0.87109-1.0742 1.7891-1.5859 2.5117z" fill="#682079"/>
 <path d="m84.547 87.477c0.066406-0.089843 0.023437-0.050781 0 0z" fill="#682079"/>
 <path d="m28.547 112.28c1.1406 0.96094 2.2539 3.3555 5.0781-0.43359 3.0352-4.0703 0.57422-4.1211-0.37109-4.9883-5.8086-5.2734-10.805-11.547-13.859-18.805-1.5-3.6211-2.4688-7.4609-2.75-11.355-0.16406-1.9336-0.10156-3.8906 0.089844-5.8086 0.074219-0.96094 0.29688-1.9219 0.46094-2.8555 0.19141-0.96094 0.43359-2.0352 0.67969-3.0469 0.47656-1.9219 1.0508-4.6992-5.3516-4.8398-5.25-0.11328-4.75 2.5469-4.8242 4.3398l-0.089844 3.0586c0 1.1133 0 2.2266 0.066406 3.3398 0.14062 2.2266 0.39453 4.4414 0.82031 6.6289 0.82812 4.3789 2.1914 8.6016 3.8555 12.699 3.4688 8.5508 9.1016 16.203 16.203 22.078z" fill="#682079"/>
 <path d="m27.773 9.8945c0.80469-2.125 1.8711-5.2344-4.4414-6.3086-5.1836-0.88672-5.1445 2.2383-5.5391 4.2734-0.89453 4.6211-1.5742 9.2656-2.2539 13.926l-1.0234 6.9766-0.28125 1.8281c-0.12891 0.96094-0.17969 1.9453-0.074219 2.9062 0.17969 1.9453 0.88672 3.8164 1.9453 5.4258 1.125 1.6758 2.6992 3.0703 4.5312 3.9531 0.91016 0.46094 1.8789 0.76953 2.8633 0.97656l1.8711 0.34375 7.2617 1.3203 14.516 2.6094c1.5859 0.28125 3.7266 1.9609 4.6719-2.6602 1.0234-4.9883-1.6992-4.0312-3.2148-4.3633-4.6992-1.0352-9.4219-1.9219-14.156-2.7656l-7.1055-1.2539c-0.44922-0.089843-0.93359-0.16406-1.4102-0.24609 0.56641-0.47656 1.1016-0.97656 1.625-1.3438l9.4336-6.7461c3.0703-2.0508 6.3594-3.7734 9.8203-5.1211 6.8867-2.6992 14.398-3.8398 21.773-3.1367 7.375 0.66406 14.566 3.1484 20.684 7.2188 6.1055 4.0703 11.102 9.6992 14.211 16.09 1.4688 3.0117 2.9297 7.3867 8.8203 4.8398 2.3945-1.0742 2.8789-2.7812 2.5195-4.6602-0.28125-1.9336-1.6992-3.7734-2.5859-5.3906-4.4961-7.1406-10.781-13.082-17.961-17.379-7.1797-4.3164-15.293-6.9766-23.582-7.8867-8.6562-0.97656-17.523 0.074219-25.699 3.0859-4.0859 1.5117-7.9844 3.4961-11.621 5.9141-3.6602 2.5195-6.6445 4.8984-9.8789 7.2695-0.47656 0.35938-1.0508 0.70312-1.6133 1.0586 0.5-2.3047 1.0234-4.5938 1.6016-6.8867 1.1797-4.6719 2.5742-9.2969 4.2891-13.859z" fill="#682079"/>
</svg>
